<?xml version="1.0" encoding="UTF-8" standalone="no"?>
<!-- Created with Inkscape (http://www.inkscape.org/) -->

<svg
   width="64"
   height="64"
   viewBox="0 0 16.933333 16.933333"
   version="1.1"
   id="svg1"
   inkscape:version="1.3 (1:1.3+202307231459+0e150ed6c4)"
   sodipodi:docname="anchor.svg"
   xmlns:inkscape="http://www.inkscape.org/namespaces/inkscape"
   xmlns:sodipodi="http://sodipodi.sourceforge.net/DTD/sodipodi-0.dtd"
   xmlns="http://www.w3.org/2000/svg"
   xmlns:svg="http://www.w3.org/2000/svg">
  <sodipodi:namedview
     id="namedview1"
     pagecolor="#505050"
     bordercolor="#ffffff"
     borderopacity="1"
     inkscape:showpageshadow="0"
     inkscape:pageopacity="0"
     inkscape:pagecheckerboard="1"
     inkscape:deskcolor="#505050"
     inkscape:document-units="px"
     showgrid="true"
     inkscape:zoom="12.008752"
     inkscape:cx="32.64286"
     inkscape:cy="35.599037"
     inkscape:window-width="1233"
     inkscape:window-height="1377"
     inkscape:window-x="95"
     inkscape:window-y="26"
     inkscape:window-maximized="0"
     inkscape:current-layer="layer1">
    <inkscape:grid
       id="grid1"
       units="px"
       originx="0"
       originy="0"
       spacingx="0.99999998"
       spacingy="0.99999998"
       empcolor="#0099e5"
       empopacity="0.30196078"
       color="#cbe500"
       opacity="0.14901961"
       empspacing="32"
       dotted="false"
       gridanglex="30"
       gridanglez="30"
       visible="true" />
  </sodipodi:namedview>
  <defs
     id="defs1">
    <inkscape:path-effect
       effect="bspline"
       id="path-effect8"
       is_visible="true"
       lpeversion="1.3"
       weight="33.333333"
       steps="2"
       helper_size="0"
       apply_no_weight="true"
       apply_with_weight="true"
       only_selected="false"
       uniform="false" />
    <inkscape:path-effect
       effect="bspline"
       id="path-effect7"
       is_visible="true"
       lpeversion="1.3"
       weight="33.333333"
       steps="2"
       helper_size="0"
       apply_no_weight="true"
       apply_with_weight="true"
       only_selected="false"
       uniform="false" />
  </defs>
  <g
     inkscape:label="Layer 1"
     inkscape:groupmode="layer"
     id="layer1">
    <path
       d="M 9.0221881,1.5904772 A 1.2406361,1.2406361 0 0 0 8.638749,1.6509386 1.2406361,1.2406361 0 0 0 8.2930337,1.8271552 1.2406361,1.2406361 0 0 0 8.0186318,2.1015571 1.2406361,1.2406361 0 0 0 7.8424152,2.4477892 1.2406361,1.2406361 0 0 0 7.7819538,2.8312283 1.2406361,1.2406361 0 0 0 7.8424152,3.2141506 1.2406361,1.2406361 0 0 0 8.0186318,3.5603827 1.2406361,1.2406361 0 0 0 8.2930337,3.8347846 1.2406361,1.2406361 0 0 0 8.638749,4.0110012 1.2406361,1.2406361 0 0 0 8.910567,4.0538926 h 0.2232422 a 1.2406361,1.2406361 0 0 0 0.2718181,-0.042891 1.2406361,1.2406361 0 0 0 0.3457153,-0.1762166 1.2406361,1.2406361 0 0 0 0.2749184,-0.2744019 1.2406361,1.2406361 0 0 0 0.176217,-0.3462321 1.2406361,1.2406361 0 0 0 0.0067,-0.020671 1.2406361,1.2406361 0 0 0 0.0057,-0.020671 1.2406361,1.2406361 0 0 0 0.0062,-0.020671 1.2406361,1.2406361 0 0 0 0.0052,-0.021187 1.2406361,1.2406361 0 0 0 0.0052,-0.021187 1.2406361,1.2406361 0 0 0 0.0047,-0.020671 1.2406361,1.2406361 0 0 0 0.0041,-0.021187 1.2406361,1.2406361 0 0 0 0.0041,-0.021704 1.2406361,1.2406361 0 0 0 0.0036,-0.021187 1.2406361,1.2406361 0 0 0 0.0031,-0.021187 1.2406361,1.2406361 0 0 0 0.0026,-0.021704 1.2406361,1.2406361 0 0 0 0.0026,-0.021187 1.2406361,1.2406361 0 0 0 0.0021,-0.021704 1.2406361,1.2406361 0 0 0 0.0016,-0.021704 1.2406361,1.2406361 0 0 0 0.0015,-0.021704 1.2406361,1.2406361 0 0 0 10e-4,-0.021187 1.2406361,1.2406361 0 0 0 5.17e-4,-0.021704 1.2406361,1.2406361 0 0 0 0,-0.00103 1.2406361,1.2406361 0 0 0 0,-0.00103 1.2406361,1.2406361 0 0 0 0,-0.00155 1.2406361,1.2406361 0 0 0 0,-0.00103 1.2406361,1.2406361 0 0 0 0,-0.00103 1.2406361,1.2406361 0 0 0 0,-0.00103 1.2406361,1.2406361 0 0 0 0,-0.00103 1.2406361,1.2406361 0 0 0 0,-0.00155 1.2406361,1.2406361 0 0 0 0,-0.00103 1.2406361,1.2406361 0 0 0 0,-0.00103 1.2406361,1.2406361 0 0 0 0,-0.00103 1.2406361,1.2406361 0 0 0 0,-0.00155 1.2406361,1.2406361 0 0 0 0,-0.00103 1.2406361,1.2406361 0 0 0 0,-0.00103 1.2406361,1.2406361 0 0 0 0,-0.00103 1.2406361,1.2406361 0 0 0 0,-0.00103 1.2406361,1.2406361 0 0 0 0,-0.00155 1.2406361,1.2406361 0 0 0 0,-0.00103 1.2406361,1.2406361 0 0 0 0,-0.00103 1.2406361,1.2406361 0 0 0 0,-5.168e-4 1.2406361,1.2406361 0 0 0 0,-5.167e-4 1.2406361,1.2406361 0 0 0 0,-5.168e-4 1.2406361,1.2406361 0 0 0 0,-5.168e-4 1.2406361,1.2406361 0 0 0 0,-5.167e-4 1.2406361,1.2406361 0 0 0 0,-5.168e-4 1.2406361,1.2406361 0 0 0 0,-5.168e-4 1.2406361,1.2406361 0 0 0 0,-5.167e-4 1.2406361,1.2406361 0 0 0 0,-5.168e-4 1.2406361,1.2406361 0 0 0 0,-5.168e-4 1.2406361,1.2406361 0 0 0 0,-5.167e-4 1.2406361,1.2406361 0 0 0 0,-5.168e-4 1.2406361,1.2406361 0 0 0 0,-5.168e-4 1.2406361,1.2406361 0 0 0 0,-5.167e-4 1.2406361,1.2406361 0 0 0 0,-5.168e-4 1.2406361,1.2406361 0 0 0 0,-5.167e-4 1.2406361,1.2406361 0 0 0 0,-5.168e-4 1.2406361,1.2406361 0 0 0 0,-5.168e-4 1.2406361,1.2406361 0 0 0 0,-5.167e-4 1.2406361,1.2406361 0 0 0 0,-5.168e-4 1.2406361,1.2406361 0 0 0 0,-5.168e-4 1.2406361,1.2406361 0 0 0 0,-5.167e-4 1.2406361,1.2406361 0 0 0 0,-5.168e-4 1.2406361,1.2406361 0 0 0 0,-5.168e-4 1.2406361,1.2406361 0 0 0 0,-5.167e-4 1.2406361,1.2406361 0 0 0 0,-5.168e-4 1.2406361,1.2406361 0 0 0 0,-5.168e-4 1.2406361,1.2406361 0 0 0 0,-5.167e-4 1.2406361,1.2406361 0 0 0 0,-5.168e-4 1.2406361,1.2406361 0 0 0 0,-5.168e-4 1.2406361,1.2406361 0 0 0 0,-5.167e-4 1.2406361,1.2406361 0 0 0 0,-5.168e-4 1.2406361,1.2406361 0 0 0 0,-5.167e-4 1.2406361,1.2406361 0 0 0 0,-5.168e-4 1.2406361,1.2406361 0 0 0 0,-5.168e-4 1.2406361,1.2406361 0 0 0 0,-5.167e-4 1.2406361,1.2406361 0 0 0 0,-5.168e-4 1.2406361,1.2406361 0 0 0 0,-5.168e-4 1.2406361,1.2406361 0 0 0 0,-5.167e-4 1.2406361,1.2406361 0 0 0 0,-5.168e-4 1.2406361,1.2406361 0 0 0 0,-5.168e-4 1.2406361,1.2406361 0 0 0 0,-5.167e-4 1.2406361,1.2406361 0 0 0 0,-5.168e-4 1.2406361,1.2406361 0 0 0 0,-5.168e-4 1.2406361,1.2406361 0 0 0 0,-5.167e-4 1.2406361,1.2406361 0 0 0 -5.17e-4,-0.00775 1.2406361,1.2406361 0 0 0 0,-5.167e-4 1.2406361,1.2406361 0 0 0 0,-5.168e-4 1.2406361,1.2406361 0 0 0 0,-5.168e-4 1.2406361,1.2406361 0 0 0 0,-5.167e-4 1.2406361,1.2406361 0 0 0 0,-5.168e-4 1.2406361,1.2406361 0 0 0 0,-5.168e-4 1.2406361,1.2406361 0 0 0 0,-5.167e-4 1.2406361,1.2406361 0 0 0 0,-5.168e-4 1.2406361,1.2406361 0 0 0 0,-5.168e-4 1.2406361,1.2406361 0 0 0 0,-5.167e-4 1.2406361,1.2406361 0 0 0 0,-5.168e-4 1.2406361,1.2406361 0 0 0 0,-5.168e-4 1.2406361,1.2406361 0 0 0 0,-5.167e-4 1.2406361,1.2406361 0 0 0 0,-5.168e-4 1.2406361,1.2406361 0 0 0 0,-5.167e-4 1.2406361,1.2406361 0 0 0 -5.16e-4,-0.00775 1.2406361,1.2406361 0 0 0 0,-5.168e-4 1.2406361,1.2406361 0 0 0 0,-5.167e-4 1.2406361,1.2406361 0 0 0 0,-5.168e-4 1.2406361,1.2406361 0 0 0 0,-5.168e-4 1.2406361,1.2406361 0 0 0 0,-5.167e-4 1.2406361,1.2406361 0 0 0 0,-5.168e-4 1.2406361,1.2406361 0 0 0 0,-5.168e-4 1.2406361,1.2406361 0 0 0 0,-5.167e-4 1.2406361,1.2406361 0 0 0 0,-5.168e-4 1.2406361,1.2406361 0 0 0 0,-5.168e-4 1.2406361,1.2406361 0 0 0 0,-5.167e-4 1.2406361,1.2406361 0 0 0 0,-5.168e-4 1.2406361,1.2406361 0 0 0 0,-5.167e-4 1.2406361,1.2406361 0 0 0 0,-5.168e-4 1.2406361,1.2406361 0 0 0 0,-5.168e-4 1.2406361,1.2406361 0 0 0 -5.17e-4,-0.00775 1.2406361,1.2406361 0 0 0 -5.17e-4,-0.00775 1.2406361,1.2406361 0 0 0 -5.17e-4,-0.00775 1.2406361,1.2406361 0 0 0 -5.16e-4,-0.00775 1.2406361,1.2406361 0 0 0 -5.17e-4,-0.00775 1.2406361,1.2406361 0 0 0 -5.17e-4,-0.00723 1.2406361,1.2406361 0 0 0 -5.17e-4,-0.00775 1.2406361,1.2406361 0 0 0 -5.16e-4,-0.00775 1.2406361,1.2406361 0 0 0 -10e-4,-0.00775 1.2406361,1.2406361 0 0 0 -5.17e-4,-0.00775 1.2406361,1.2406361 0 0 0 -10e-4,-0.00775 A 1.2406361,1.2406361 0 0 0 10.231933,2.5547594 1.2406361,1.2406361 0 0 0 10.193176,2.4214342 1.2406361,1.2406361 0 0 0 10.139949,2.2927599 1.2406361,1.2406361 0 0 0 10.07277,2.1708035 1.2406361,1.2406361 0 0 0 9.9921548,2.0576321 1.2406361,1.2406361 0 0 0 9.8996539,1.9537625 1.2406361,1.2406361 0 0 0 9.7957843,1.8612617 1.2406361,1.2406361 0 0 0 9.6826129,1.7806464 1.2406361,1.2406361 0 0 0 9.5606566,1.7134671 1.2406361,1.2406361 0 0 0 9.4319822,1.6602403 1.2406361,1.2406361 0 0 0 9.298657,1.621483 1.2406361,1.2406361 0 0 0 9.1611977,1.5982286 1.2406361,1.2406361 0 0 0 9.0221881,1.5904772 Z"
       style="fill:none;stroke:#000000;stroke-width:0.264583"
       id="path31" />
    <path
       d="M 9.1338092,3.964099 A 1.2406361,1.2406361 0 0 1 9.0221881,3.981669 1.2406361,1.2406361 0 0 1 8.910567,3.964099 h -0.037724 l -0.00207,1.8277954 C 8.2847941,5.791128 7.5569917,5.7894768 6.7225869,5.7867268 6.7192069,5.7671098 6.7150666,5.7476284 6.7101846,5.7283324 6.6997296,5.6931764 6.6867763,5.6588084 6.6714273,5.6254963 6.6561833,5.5920703 6.6385673,5.5597744 6.6187173,5.5288614 6.5989553,5.4980574 6.5770222,5.4686984 6.5530882,5.4410114 6.5289763,5.4131705 6.5028968,5.387091 6.4750568,5.36298 6.4473699,5.3390461 6.4180109,5.317113 6.3872069,5.297351 6.3562939,5.277501 6.3239979,5.259885 6.290572,5.244641 6.25726,5.229292 6.2228919,5.2163387 6.1877359,5.2058837 c -0.035229,-0.010301 -0.071151,-0.018072 -0.107487,-0.023254 -0.036286,-0.00519 -0.072899,-0.00778 -0.109554,-0.00775 -0.050635,2.99e-5 -0.1009602,0.00512 -0.1503784,0.014986 -0.049418,0.00987 -0.097929,0.024509 -0.1446941,0.043925 -0.046759,0.019338 -0.091437,0.043359 -0.1333251,0.071313 -0.041888,0.027954 -0.080988,0.059843 -0.1167888,0.095601 -0.035759,0.035801 -0.067647,0.074901 -0.095601,0.1167888 -0.027954,0.041888 -0.051975,0.086566 -0.071313,0.1333252 -0.019382,0.046684 -0.034059,0.095363 -0.043925,0.144694 -0.00987,0.049331 -0.014922,0.099314 -0.014986,0.1498616 3e-5,0.050635 0.00512,0.1009602 0.014986,0.1503784 0.00987,0.049418 0.024509,0.097929 0.043925,0.144694 0.019338,0.04676 0.043359,0.091437 0.071313,0.1333252 0.027954,0.041888 0.059843,0.080988 0.095601,0.1167888 0.035801,0.035759 0.0749,0.067647 0.1167888,0.095601 0.041888,0.027954 0.086566,0.051975 0.1333251,0.071313 0.046765,0.019416 0.095276,0.034059 0.1446941,0.043925 0.049418,0.00987 0.099744,0.014956 0.1503784,0.014986 0.050548,-6.39e-5 0.1010476,-0.00512 0.1503784,-0.014986 0.049331,-0.00987 0.097493,-0.024542 0.1441772,-0.043925 0.04676,-0.019338 0.091437,-0.043359 0.1333252,-0.071313 0.041888,-0.027954 0.080988,-0.059843 0.1167888,-0.095601 0.035759,-0.035801 0.067647,-0.074901 0.095601,-0.1167888 0.027954,-0.041888 0.051975,-0.086566 0.071313,-0.1333252 0.010264,-0.030773 0.018505,-0.062292 0.024805,-0.094051 0.0063,-0.031759 0.010659,-0.063757 0.012919,-0.096118 0.8354373,0.00286 1.5637051,0.00514 2.1502563,0.0062 l -0.00827,7.5189203 C 8.5632103,13.423413 8.2655202,13.271483 7.998478,13.129431 7.6471014,12.942516 7.3226701,12.764134 7.022827,12.594063 6.7229839,12.423992 6.4476884,12.262467 6.1954873,12.108821 5.9432865,11.955177 5.714057,11.809793 5.505607,11.672156 5.2971569,11.534519 5.1093739,11.404562 4.9407836,11.282515 4.7721933,11.160468 4.6227872,11.046258 4.4901651,10.939384 4.357543,10.832512 4.2418942,10.732811 4.1413492,10.640694 4.0408042,10.548576 3.9553264,10.463707 3.882967,10.385929 3.8106078,10.308149 3.7515556,10.238119 3.7036498,10.175089 3.6557442,10.112059 3.6188043,10.056073 3.5904784,10.007658 3.5621528,9.9592443 3.5426029,9.9180802 3.5289835,9.884151 3.5181728,9.8572192 3.5131284,9.8384694 3.5088297,9.820589 l 0.3271118,-0.067696 c 0.00424,-0.00269 0.00951,-0.00543 0.016536,-0.00723 0.00436,-0.00112 0.00265,-3.549e-4 0.00723,-0.00155 0.00551,-0.0014 0.010885,-0.00259 0.016536,-0.00362 0.0049,-8.979e-4 0.00985,-0.00262 0.014469,-0.00413 0.00503,-0.00158 0.00947,-0.0033 0.013953,-0.00568 0.00609,-0.00293 0.011435,-0.00691 0.017053,-0.010335 0.00938,-0.00537 0.019639,-0.00962 0.031006,-0.011886 0.00196,-4.831e-4 0.0037,-5.596e-4 0.00568,-0.00103 C 3.9080681,9.6652277 3.8583116,9.6244183 3.8152709,9.5978636 3.7910135,9.5828977 3.7687395,9.5721761 3.744991,9.5591063 3.7212424,9.5460364 3.696253,9.5305819 3.6654093,9.5053628 3.6345653,9.4801436 3.5982835,9.4452206 3.5615396,9.4087278 3.524796,9.372235 3.487486,9.3340392 3.4545694,9.3022744 3.3887363,9.2387453 3.3398484,9.2009998 3.2768025,9.1389769 3.2137567,9.076954 3.1365498,8.9905795 3.0747477,8.917285 3.0129453,8.8439906 2.9671424,8.7834463 2.9347045,8.7353839 2.9022667,8.6873215 2.8832324,8.6518095 2.8732096,8.6325478 c -0.00251,-0.00481 -0.00499,-0.00838 -0.00723,-0.00827 -0.00337,1.684e-4 -0.00742,0.00952 -0.014986,0.037207 -0.00757,0.027691 -0.018635,0.073828 -0.036173,0.1488282 -0.023385,0.1000005 -0.058169,0.2506709 -0.095085,0.4061767 -0.036916,0.1555058 -0.076053,0.3157607 -0.1080038,0.4345988 -0.03195,0.1188379 -0.056272,0.1964684 -0.077515,0.2532145 -0.021243,0.056746 -0.039152,0.092619 -0.056844,0.1286742 L 2.9910318,9.9270424 c 0.010515,0.0478 0.023619,0.09665 0.044442,0.1498616 0.024046,0.06145 0.055497,0.126749 0.096118,0.196371 0.040621,0.06962 0.090151,0.143893 0.1503785,0.222725 0.060228,0.07883 0.1310742,0.162592 0.2139404,0.251664 0.082866,0.08907 0.1781307,0.183749 0.2878377,0.284737 0.109707,0.100988 0.2340837,0.208273 0.3746541,0.321944 0.1405707,0.113672 0.2973825,0.233578 0.4728394,0.360702 0.1754567,0.127122 0.369578,0.261219 0.5839436,0.402559 0.2143658,0.141342 0.4491194,0.290157 0.7064169,0.446485 0.2572973,0.15633 0.5370405,0.320393 0.8412923,0.492476 0.3042517,0.172083 0.6333412,0.351932 0.9885701,0.540536 0.3437166,0.182492 0.7148615,0.373908 1.1100097,0.572574 0.010676,0.0054 0.019258,0.01012 0.029972,0.0155 h 0.00878 0.1663981 0.037724 c 0.00812,-0.0041 0.014636,-0.0078 0.022738,-0.01189 0.388848,-0.195643 0.7556285,-0.384383 1.0945067,-0.564307 0.355226,-0.188603 0.683806,-0.368971 0.988053,-0.541052 0.304249,-0.172081 0.583998,-0.335633 0.841293,-0.49196 0.257295,-0.156326 0.492053,-0.305145 0.706417,-0.446484 0.214362,-0.141341 0.408488,-0.275438 0.583943,-0.402559 0.175456,-0.127121 0.33227,-0.247549 0.47284,-0.361219 0.140567,-0.11367 0.264947,-0.220441 0.374654,-0.321427 0.109705,-0.100988 0.204973,-0.196182 0.287837,-0.285254 0.08287,-0.08907 0.15338,-0.1725 0.213424,-0.251147 0.06005,-0.07865 0.109485,-0.152313 0.149862,-0.221692 0.04038,-0.06938 0.07174,-0.134592 0.0956,-0.195854 0.02386,-0.06126 0.04014,-0.1188151 0.05064,-0.1731161 0.0051,-0.026411 0.0045,-0.049136 0.0067,-0.073897 l 0.451135,0.093018 c -0.01769,-0.036054 -0.0356,-0.071929 -0.05684,-0.1286743 -0.02124,-0.056746 -0.04608,-0.1343769 -0.07803,-0.2532145 -0.03195,-0.1188374 -0.07109,-0.2790936 -0.108004,-0.4345988 -0.03691,-0.1555051 -0.0717,-0.3061767 -0.09508,-0.4061768 -0.01754,-0.075 -0.0286,-0.1216545 -0.03617,-0.1493448 -0.0076,-0.027691 -0.01164,-0.036522 -0.01499,-0.03669 -0.0023,-1.1e-4 -0.0042,0.00346 -0.0067,0.00827 -0.01002,0.019262 -0.02906,0.054774 -0.0615,0.1028361 -0.03244,0.048062 -0.07824,0.1086066 -0.140043,0.1819011 -0.0618,0.073294 -0.139523,0.1596691 -0.202572,0.2216918 -0.06305,0.062023 -0.111422,0.099769 -0.17725,0.1632976 -0.03292,0.031765 -0.07023,0.06996 -0.10697,0.1064534 -0.03674,0.036493 -0.07302,0.071416 -0.10387,0.096635 -0.03084,0.025219 -0.05635,0.040674 -0.0801,0.053744 -0.02375,0.01307 -0.04602,0.023791 -0.07028,0.038757 -0.04304,0.026555 -0.09278,0.067393 -0.143144,0.109554 0.002,4.809e-4 0.0042,5.576e-4 0.0062,0.00103 0.01137,0.00226 0.02109,0.00652 0.03049,0.011886 0.0056,0.00343 0.01095,0.00741 0.01705,0.010335 0.0045,0.00238 0.0095,0.0041 0.01447,0.00568 0.0046,0.00151 0.0091,0.00324 0.01395,0.00413 0.0056,0.00103 0.01155,0.00222 0.01705,0.00362 0.0046,0.0012 0.0023,4.308e-4 0.0067,0.00155 0.0071,0.0018 0.01234,0.00403 0.01654,0.00672 l 0.487309,0.100769 -0.07596,0.057361 c 0,0 -0.02439,-0.04126 -0.02532,-0.044958 -9.3e-4,-0.0037 0.0035,0.00787 -0.0041,0.047026 -0.0038,0.019576 -0.01119,0.04617 -0.02481,0.080099 -0.01362,0.03393 -0.03369,0.075094 -0.06201,0.1235064 -0.02833,0.04841 -0.06527,0.103885 -0.113172,0.166915 -0.04791,0.06303 -0.106441,0.13358 -0.1788,0.211357 -0.07236,0.07778 -0.15784,0.162649 -0.258382,0.254765 -0.100545,0.09212 -0.216196,0.191301 -0.348816,0.298173 -0.132621,0.106872 -0.282546,0.221601 -0.451136,0.343648 -0.168587,0.122045 -0.355858,0.251487 -0.564306,0.389123 -0.208448,0.137636 -0.437681,0.283538 -0.689881,0.437183 -0.252197,0.153643 -0.5275,0.315173 -0.827339,0.485242 -0.299841,0.170069 -0.624278,0.348457 -0.9756513,0.535367 -0.2612597,0.138977 -0.5532845,0.287662 -0.8449096,0.43615 l 0.00723,-7.5204715 c 0.094437,1.458e-4 0.2750661,9.378e-4 0.3632853,0.00103 0.8397259,9.776e-4 1.3919889,-1.057e-4 1.7694009,-0.00207 0.0024,0.028615 0.0063,0.057144 0.01189,0.085266 0.0056,0.028122 0.01298,0.055836 0.0217,0.083199 0.01942,0.046781 0.04327,0.091437 0.07131,0.1333252 0.02804,0.041889 0.06027,0.081011 0.09612,0.1167888 0.03572,0.035731 0.07499,0.067647 0.116789,0.095601 0.0418,0.027954 0.08614,0.051946 0.132809,0.071313 0.04677,0.019416 0.09528,0.034059 0.144694,0.043925 0.04942,0.00987 0.09974,0.014956 0.150378,0.014986 0.05063,-2.99e-5 0.10096,-0.00512 0.150378,-0.014986 0.04942,-0.00987 0.09793,-0.024509 0.144694,-0.043925 0.04676,-0.019338 0.09144,-0.043359 0.133326,-0.071313 0.04189,-0.027954 0.08099,-0.059843 0.116788,-0.095601 0.03576,-0.035801 0.06765,-0.0749 0.0956,-0.1167888 0.02795,-0.041888 0.05198,-0.086566 0.07131,-0.1333252 0.01942,-0.046764 0.03406,-0.095276 0.04393,-0.144694 0.0099,-0.049418 0.01496,-0.099743 0.01499,-0.1503784 -1.46e-4,-0.036667 -0.0029,-0.07328 -0.0083,-0.109554 -0.0052,-0.036336 -0.01295,-0.072258 -0.02325,-0.107487 -0.01029,-0.035143 -0.02307,-0.06951 -0.03824,-0.1028361 -0.01524,-0.033426 -0.03286,-0.065722 -0.05271,-0.096635 -0.01993,-0.03082 -0.04203,-0.06018 -0.06615,-0.08785 -0.02395,-0.027823 -0.04985,-0.053902 -0.07751,-0.078031 -0.02785,-0.023954 -0.05739,-0.045887 -0.08837,-0.065629 -0.03075,-0.019829 -0.06287,-0.037444 -0.09612,-0.05271 -0.03348,-0.015372 -0.06802,-0.028325 -0.103353,-0.038757 -0.03523,-0.010301 -0.07115,-0.018072 -0.107487,-0.023254 -0.03629,-0.00519 -0.0729,-0.00778 -0.109554,-0.00775 -0.05062,-5.2e-5 -0.10096,0.00521 -0.150378,0.014986 -0.04942,0.00978 -0.09791,0.024081 -0.144694,0.043408 -0.04669,0.019445 -0.09101,0.043273 -0.132809,0.071314 -0.0418,0.028041 -0.08109,0.060294 -0.116789,0.096118 -0.03585,0.035778 -0.06808,0.0749 -0.09612,0.1167888 -0.02804,0.041889 -0.0519,0.086544 -0.07131,0.1333252 -0.01566,0.050643 -0.02605,0.1027704 -0.03101,0.155546 -0.376627,0.00197 -0.929724,0.0036 -1.7704346,0.0031 -0.088446,-5.24e-5 -0.2696173,-9.445e-4 -0.3643189,-0.00103 l 0.00155,-1.8283122 z"
       style=""
       id="path32" />
  </g>
</svg>
