<?xml version="1.0" encoding="UTF-8" standalone="no"?>
<!-- Created with Inkscape (http://www.inkscape.org/) -->

<svg
   width="128"
   height="128"
   viewBox="0 0 33.866666 33.866666"
   version="1.1"
   id="svg1"
   sodipodi:docname="GenericFish.svg"
   inkscape:version="1.3 (1:1.3+202307231459+0e150ed6c4)"
   xmlns:inkscape="http://www.inkscape.org/namespaces/inkscape"
   xmlns:sodipodi="http://sodipodi.sourceforge.net/DTD/sodipodi-0.dtd"
   xmlns="http://www.w3.org/2000/svg"
   xmlns:svg="http://www.w3.org/2000/svg">
  <sodipodi:namedview
     id="namedview1"
     pagecolor="#505050"
     bordercolor="#ffffff"
     borderopacity="1"
     inkscape:showpageshadow="0"
     inkscape:pageopacity="0"
     inkscape:pagecheckerboard="1"
     inkscape:deskcolor="#505050"
     inkscape:document-units="px"
     showguides="true"
     showgrid="true"
     inkscape:zoom="5.7421875"
     inkscape:cx="65.393197"
     inkscape:cy="72.707483"
     inkscape:window-width="1233"
     inkscape:window-height="1377"
     inkscape:window-x="95"
     inkscape:window-y="26"
     inkscape:window-maximized="0"
     inkscape:current-layer="layer1">
    <inkscape:grid
       id="grid1"
       units="px"
       originx="0"
       originy="0"
       spacingx="16.933333"
       spacingy="16.933333"
       empcolor="#0099e5"
       empopacity="0.30196078"
       color="#e50000"
       opacity="0.8"
       empspacing="5"
       dotted="false"
       gridanglex="30"
       gridanglez="30"
       visible="true" />
  </sodipodi:namedview>
  <defs
     id="defs1">
    <inkscape:path-effect
       effect="bspline"
       id="path-effect7"
       is_visible="true"
       lpeversion="1.3"
       weight="33.333333"
       steps="2"
       helper_size="0"
       apply_no_weight="true"
       apply_with_weight="true"
       only_selected="false"
       uniform="false" />
    <inkscape:path-effect
       effect="bspline"
       id="path-effect6"
       is_visible="true"
       lpeversion="1.3"
       weight="33.333333"
       steps="2"
       helper_size="0"
       apply_no_weight="true"
       apply_with_weight="true"
       only_selected="false"
       uniform="false" />
    <inkscape:path-effect
       effect="bspline"
       id="path-effect5"
       is_visible="true"
       lpeversion="1.3"
       weight="33.333333"
       steps="2"
       helper_size="0"
       apply_no_weight="true"
       apply_with_weight="true"
       only_selected="false"
       uniform="false" />
    <inkscape:path-effect
       effect="bspline"
       id="path-effect4"
       is_visible="true"
       lpeversion="1.3"
       weight="33.333333"
       steps="2"
       helper_size="0"
       apply_no_weight="true"
       apply_with_weight="true"
       only_selected="false"
       uniform="false" />
    <inkscape:path-effect
       effect="bspline"
       id="path-effect1"
       is_visible="true"
       lpeversion="1.3"
       weight="33.333333"
       steps="2"
       helper_size="0"
       apply_no_weight="true"
       apply_with_weight="true"
       only_selected="false"
       uniform="false" />
  </defs>
  <g
     inkscape:label="Layer 1"
     inkscape:groupmode="layer"
     id="layer1">
    <path
       d="m 25.79119,2.4639322 c -0.46791,-0.2145439 -1.544092,0.022221 -1.544092,0.022221 l -0.06511,5.0658406 -2.691825,0.4139282 c 0,0 -0.433564,-1.7235309 -0.931726,-2.436027 -0.655979,-0.9382149 -2.591573,-2.2536092 -2.591573,-2.2536092 0,0 1.422917,1.6600831 1.915645,2.624646 0.351067,0.687248 0.715202,2.2019327 0.715202,2.2019327 l -4.46898,0.6872965 c 0,0 -0.341112,-0.6835792 -0.617017,-0.9353434 -0.786954,-0.7180991 -2.817399,-1.5089518 -2.817399,-1.5089518 0,0 1.752499,1.3333579 2.166793,1.8288289 0.414294,0.495471 0.519348,0.9007202 0.519348,0.9007202 l -4.029211,1.6949871 c 0,0 -0.535727,-0.599713 -0.877466,-0.7989178 C 9.5622616,9.4401463 7.4662108,8.9849811 7.4662108,8.9849811 c 0,0 1.6709465,0.7168422 2.3931355,1.2552209 0.3064607,0.228461 0.8004677,0.821138 0.8004677,0.821138 0,0 -1.3530345,0.30905 -1.8277951,0.768945 -0.5695129,0.551681 -0.9916707,2.162142 -0.9916707,2.162142 0,0 -0.3799103,-0.223813 -0.5891114,-0.286287 -1.015961,-0.303396 -3.1548461,-0.406177 -3.1548461,-0.406177 0,0 1.7698612,0.341343 2.6029419,0.671277 0.3249716,0.128702 0.9193237,0.504362 0.9193237,0.504362 0,0 -0.6077489,1.137925 -0.8020183,1.749247 -0.2011192,0.632877 -0.3674194,1.95802 -0.3674194,1.95802 0,0 -0.4376825,-0.0041 -0.6485392,0.04599 -0.7736972,0.183764 -2.201416,0.919324 -2.201416,0.919324 0,0 1.2773014,-0.441947 1.9420003,-0.540019 0.2742544,-0.04046 0.8314738,-0.01809 0.8314738,-0.01809 -0.075583,0.997723 -0.5539011,2.003286 -0.5183145,3.000334 0,0 -0.3035141,0.107607 -0.4366658,0.195337 -0.4979819,0.328107 -1.315682,1.212329 -1.315682,1.212329 0,0 0.7871309,-0.638784 1.2304158,-0.878499 0.1824439,-0.09866 0.5798096,-0.225826 0.5798096,-0.225826 l 0.3989421,2.095479 c 0,0 -0.3161612,0.260463 -0.4371827,0.42323 -0.3558882,0.478648 -0.8216552,1.589567 -0.8216552,1.589567 0,0 0.5207401,-0.869933 0.8552449,-1.246952 0.1384415,-0.156037 0.4702555,-0.412895 0.4702555,-0.412895 0.1671565,0.399136 1.1168616,1.162541 1.6396928,2.015381 0.095945,0.156505 -0.137702,0.342963 -0.171049,0.523482 -0.1112508,0.602238 -0.1505163,1.225506 -0.090951,1.83503 0.064957,0.664695 0.2075252,1.336449 0.4847249,1.944067 0.2523776,0.553209 0.5343986,1.167136 1.0474813,1.493449 0.517831,0.329333 0.9302418,0.329965 1.8133258,0.318327 -0.04134,-0.357814 0.07571,-0.799213 0.0546,-1.408252 -0.01712,-0.49388 -0.286075,-0.904076 -0.579644,-1.390027 -0.427621,-0.70785 -1.3743029,-1.609412 -0.9234572,-2.302701 0.2929951,-0.450554 1.0595382,-0.239826 1.5956642,-0.202226 1.027809,0.07208 1.890486,0.199396 3.042136,-0.06085 0,0 0.8755,-0.349046 1.712199,-1.094473 -0.793562,-0.549356 -1.308847,-0.740952 -2.034501,-0.880567 -0.173281,-0.03334 -0.195365,0.0024 -0.529166,0.01499 -0.333804,0.01261 -0.806196,0.03505 -1.360641,0.07545 -0.277222,0.0202 -0.575085,0.04495 -0.886251,0.07493 -0.311165,0.02998 -0.635902,0.06532 -0.966866,0.10697 -0.3309628,0.04165 -0.6679728,0.08948 -1.0045892,0.144694 C 8.9742049,25.590276 8.6741307,25.851079 8.48785,25.687832 7.8881395,25.162276 7.5902507,24.9278 7.1111937,23.95616 c 0,0 0.2288459,-0.108598 0.3524333,-0.120923 0.2766442,-0.02759 0.8268229,0.109554 0.8268229,0.109554 0,0 -0.5295614,-0.47085 -0.8614461,-0.525032 -0.1356432,-0.02214 -0.4020427,0.09147 -0.4020427,0.09147 L 6.6972655,21.779552 c 0,0 0.2788095,-0.02614 0.4118612,0.0078 0.2693566,0.06871 0.7394897,0.385506 0.7394897,0.385506 0,0 -0.3369668,-0.623643 -0.6304525,-0.788065 -0.1611589,-0.09029 -0.5498372,-0.06925 -0.5498372,-0.06925 l 0.4893758,-2.606559 c 0,0 0.5369746,0.140116 0.7617106,0.293522 0.3061287,0.208966 1.4333069,0.690913 1.4333069,0.690913 L 8.2392902,18.54827 C 7.9867418,18.288527 7.6119881,18.181093 7.2672565,18.124522 c 0,0 0.1408739,-1.120571 0.3110921,-1.655713 0.1731469,-0.54435 0.7146851,-1.557528 0.7146851,-1.557528 0,0 0.633117,0.70411 0.8888346,1.100191 0.2479794,0.384096 0.6649992,1.000269 0.6649992,1.000269 0,0 0.1167993,0.0049 -0.195466,-1.194855 -0.1941406,-0.745924 -0.7131726,-1.050821 -1.0963683,-1.477146 0,0 0.3707741,-1.413751 0.8707479,-1.898075 0.45679,-0.442492 1.7585489,-0.740007 1.7585489,-0.740007 0,0 0.49893,1.023988 0.589628,1.578198 0.105022,0.641737 0.222896,1.434669 0.222896,1.434669 l 0.254882,-1.46283 c 0.09546,-0.547843 0.11507,-1.471332 -0.253507,-1.892135 l 3.781164,-1.5911172 c 0.251788,0.3606092 0.486745,1.3983242 0.49351,2.5853722 0.005,0.875332 -0.37362,2.599324 -0.37362,2.599324 0,0 0.942191,-1.735208 1.103145,-2.785587 0.194211,-1.267405 -0.130199,-1.77881 -0.392594,-2.6487064 l 4.099491,-0.6294189 c 0,0 0.146746,1.8069933 0.07183,2.7062943 -0.09682,1.162207 -0.670243,3.433899 -0.670243,3.433899 0,0 1.213394,-2.508321 1.486214,-3.859712 0.160252,-0.793796 0.07493,-2.4282759 0.07493,-2.4282759 l 2.499589,-0.3839559 -0.07597,5.9278038 c 0,0 2.979537,-0.843399 4.403866,-1.440739 1.388127,-0.582157 3.042482,-0.923904 4.009574,-2.077393 0.241544,-0.288099 0.377743,-0.647411 0.336197,-1.0766006 C 32.78474,9.0650107 32.585176,8.4488516 32.2107,7.9438934 31.306777,6.7250094 30.275127,5.462888 29.135161,4.4612733 28.159809,3.6042946 28.283931,3.6068925 25.79119,2.4639322 Z m 1.411283,2.5125081 c 0.08317,-6.47e-5 0.166233,0.00581 0.248564,0.01757 0.08247,0.011905 0.163981,0.029693 0.243913,0.053227 0.07983,0.023345 0.157883,0.052357 0.233577,0.086816 0.07563,0.034709 0.148675,0.074774 0.218592,0.1198894 0.07014,0.044952 0.136969,0.094861 0.199987,0.1493449 0.06286,0.054471 0.121746,0.1133597 0.176217,0.1762166 0.05446,0.062852 0.104373,0.1295122 0.149345,0.199471 0.04496,0.070099 0.08485,0.1433215 0.119372,0.2191081 0.03464,0.07568 0.06382,0.1537384 0.08733,0.2335774 0.02336,0.079944 0.04097,0.1614567 0.05271,0.2439128 0.01194,0.082318 0.01798,0.1653844 0.01809,0.2485636 -1.1e-4,0.2294887 -0.04541,0.4567105 -0.133325,0.6686931 -0.08782,0.2119967 -0.216536,0.4046254 -0.378788,0.5668904 -0.162219,0.1624377 -0.354851,0.2913272 -0.566891,0.379305 -0.212018,0.087734 -0.439239,0.1328624 -0.668693,0.1328084 -0.229628,1.218e-4 -0.45703,-0.045008 -0.669209,-0.1328084 -0.21204,-0.087978 -0.404672,-0.2168673 -0.566891,-0.379305 -0.162252,-0.162265 -0.290964,-0.3548937 -0.378788,-0.5668904 -0.08773,-0.2120185 -0.132862,-0.439239 -0.132808,-0.6686931 -5.4e-5,-0.229454 0.04507,-0.4566745 0.132808,-0.668693 0.08777,-0.2121809 0.21648,-0.4049899 0.378788,-0.5674072 0.162265,-0.1622522 0.354894,-0.290964 0.566891,-0.3787882 0.212179,-0.087801 0.439581,-0.1329303 0.669209,-0.1328084 z"
       style="opacity:1;fill:#2e2ed1;fill-opacity:1;stroke:#000000;stroke-width:0.264583;stroke-dasharray:none"
       id="path20"
       sodipodi:nodetypes="scccscsccscsccscscscscscscscsccscsccscscssssscssssscssssssscscsccscsccscscscscscscscsccscsccscscccssssssccccccsccccccccccccccccc" />
  </g>
</svg>
