<?xml version="1.0" encoding="UTF-8" standalone="no"?>
<!-- Created with Inkscape (http://www.inkscape.org/) -->

<svg
   width="400"
   height="400"
   viewBox="0 0 105.83333 105.83333"
   version="1.1"
   id="svg1"
   inkscape:version="1.3 (1:1.3+202307231459+0e150ed6c4)"
   sodipodi:docname="BoatInventoryBackground.svg"
   xmlns:inkscape="http://www.inkscape.org/namespaces/inkscape"
   xmlns:sodipodi="http://sodipodi.sourceforge.net/DTD/sodipodi-0.dtd"
   xmlns="http://www.w3.org/2000/svg"
   xmlns:svg="http://www.w3.org/2000/svg">
  <sodipodi:namedview
     id="namedview1"
     pagecolor="#505050"
     bordercolor="#ffffff"
     borderopacity="1"
     inkscape:showpageshadow="0"
     inkscape:pageopacity="0"
     inkscape:pagecheckerboard="1"
     inkscape:deskcolor="#505050"
     inkscape:document-units="px"
     inkscape:zoom="1.048534"
     inkscape:cx="173.09883"
     inkscape:cy="291.35919"
     inkscape:window-width="2465"
     inkscape:window-height="1377"
     inkscape:window-x="95"
     inkscape:window-y="26"
     inkscape:window-maximized="1"
     inkscape:current-layer="layer1" />
  <defs
     id="defs1">
    <inkscape:path-effect
       effect="bspline"
       id="path-effect2"
       is_visible="true"
       lpeversion="1.3"
       weight="33.333333"
       steps="2"
       helper_size="0"
       apply_no_weight="true"
       apply_with_weight="true"
       only_selected="false"
       uniform="false" />
    <inkscape:path-effect
       effect="bspline"
       id="path-effect1"
       is_visible="true"
       lpeversion="1.3"
       weight="33.333333"
       steps="2"
       helper_size="0"
       apply_no_weight="true"
       apply_with_weight="true"
       only_selected="false"
       uniform="false" />
  </defs>
  <g
     inkscape:label="Layer 1"
     inkscape:groupmode="layer"
     id="layer1">
    <path
       style="fill:none;stroke:#ececec;stroke-width:0.529167;stroke-opacity:1"
       d="m 7.2247942,91.670948 c 3.1540818,-0.663317 6.3081648,-1.326635 8.2282568,-2.373224 1.920092,-1.046589 2.606194,-2.476451 3.035892,-3.029242 0.429699,-0.552791 0.602995,-0.228515 1.346112,0.605034 0.743118,0.833548 2.056056,2.176372 3.074953,2.946592 1.018897,0.770221 1.743753,0.967841 3.864128,1.135713 2.120374,0.167873 5.636266,0.305998 8.105638,-0.03589 2.469372,-0.341888 3.892225,-1.163788 4.855877,-1.79698 0.963652,-0.633193 1.468103,-1.077677 1.837889,-1.11559 0.369786,-0.03791 0.604904,0.330743 1.154211,0.983219 0.549306,0.652476 1.4128,1.588768 3.21947,2.702635 1.80667,1.113867 4.556518,2.40531 6.569243,3.190019 2.012726,0.784708 3.288332,1.062683 4.651141,0.961034 1.362808,-0.10165 2.812817,-0.582923 3.888291,-0.9287 1.075474,-0.345777 1.776414,-0.556057 2.589576,-1.031722 0.813162,-0.475664 1.73855,-1.216713 2.398371,-1.527474 0.659821,-0.310761 1.054077,-0.191236 1.724335,0.131377 0.670258,0.322613 1.61652,0.848313 2.969984,1.466643 1.353464,0.61833 3.114131,1.329289 5.529219,1.763147 2.415087,0.433858 5.484595,0.590614 7.929316,0.360533 2.444721,-0.230081 4.264652,-0.847 6.084583,-1.463918"
       id="path1"
       inkscape:path-effect="#path-effect1"
       inkscape:original-d="m 7.2247942,91.670948 c 3.1540818,-0.663318 6.3081648,-1.326636 9.4622468,-1.989952 0.686102,-1.429861 1.372203,-2.859723 2.058304,-4.289581 0.173297,0.324276 0.346593,0.648552 0.51989,0.972828 1.312938,1.342821 2.625876,2.685645 3.938814,4.028466 0.724856,0.19762 1.449712,0.39524 2.174569,0.59286 3.515892,0.138126 7.031784,0.276251 10.547676,0.414375 1.422852,-0.821899 2.845705,-1.643801 4.268557,-2.4657 0.504452,-0.444484 1.008904,-0.888968 1.513356,-1.333455 0.235119,0.36866 0.470236,0.737317 0.705355,1.105974 0.863495,0.936294 1.726989,1.872586 2.590483,2.808878 2.749846,1.291441 5.499695,2.582883 8.249541,3.874328 1.275604,0.277974 2.551211,0.555947 3.826815,0.833924 1.450012,-0.481274 2.900021,-0.962546 4.350033,-1.443821 0.700936,-0.21028 1.401876,-0.42056 2.102813,-0.63084 0.925388,-0.741048 1.850776,-1.482096 2.776161,-2.223146 0.394256,0.119526 0.788512,0.239051 1.182767,0.358577 0.946261,0.5257 1.892523,1.051401 2.838786,1.577101 1.760665,0.71096 3.521332,1.421919 5.281999,2.132878 3.069508,0.156755 6.139016,0.31351 9.208527,0.470268 1.819931,-0.616918 3.639862,-1.233837 5.459793,-1.850755"
       transform="translate(-5.7553316,7.3473275)" />
    <path
       style="fill:none;stroke:#ececec;stroke-width:0.529167;stroke-opacity:1"
       d="m 4.2512006,11.670715 c 2.4203857,0.07009 4.8407714,0.140188 7.5938934,-0.257902 2.753123,-0.39809 5.838982,-1.264365 7.803081,-1.9681238 1.964099,-0.7037591 2.806437,-1.2450025 3.371909,-1.6238203 0.565473,-0.3788179 0.854079,-0.5952096 1.018884,-0.7308835 0.164804,-0.1356738 0.20581,-0.1906343 0.243836,-0.088241 0.03803,0.102393 0.07307,0.3621352 0.288318,0.8295904 0.215245,0.4674551 0.610687,1.1426243 2.336356,1.734057 1.725669,0.5914324 4.78157,1.0991294 7.855307,0.6556434 3.073737,-0.4434872 6.165317,-1.8381585 8.012676,-2.7105847 1.847359,-0.8724262 2.450498,-1.2226077 3.608066,-0.9963564 1.157568,0.2262513 2.869567,1.0289361 4.154706,1.7244399 1.285138,0.6955037 2.143417,1.283827 3.792912,1.6097719 1.649494,0.3259453 4.090204,0.3895113 7.530439,-0.034313 3.440236,-0.4238245 7.879997,-1.3350405 10.899496,-1.4779331 3.019499,-0.1428926 4.618738,0.4825373 6.238729,0.913254 1.619991,0.4307168 3.260733,0.6667202 4.668692,0.7321515 1.407959,0.065432 2.583138,-0.039709 4.810431,-0.4813542 2.227293,-0.4416453 5.506702,-1.2197955 7.631791,-1.7604343 2.125088,-0.5406388 3.09586,-0.8437673 4.066627,-1.1468944"
       id="path2"
       inkscape:path-effect="#path-effect2"
       inkscape:original-d="m 4.2512006,11.670715 c 2.4203858,0.07009 4.8407714,0.140188 7.2611574,0.210282 3.085859,-0.866274 6.171718,-1.732549 9.257577,-2.598823 0.842339,-0.5412435 1.684677,-1.0824871 2.527015,-1.6237307 0.288607,-0.2163921 0.577213,-0.4327842 0.86582,-0.6491763 0.041,-0.054957 0.08201,-0.1099146 0.123011,-0.164872 0.03505,0.259742 0.0701,0.519484 0.105145,0.779226 0.395441,0.6751688 0.790883,1.3503378 1.186324,2.0255066 3.055897,0.5076964 6.111798,1.0153934 9.167695,1.5230904 3.091577,-1.394671 6.183157,-2.7893418 9.274736,-4.1840124 0.603139,-0.3501816 1.206278,-0.7003629 1.809417,-1.0505445 1.711997,0.8026847 3.423996,1.6053694 5.135996,2.4080541 0.858277,0.588323 1.716556,1.176646 2.574835,1.7649688 2.44071,0.06357 4.88142,0.127134 7.322132,0.1907 4.439759,-0.9112155 8.87952,-1.8224312 13.319278,-2.733647 1.59924,0.62543 3.198479,1.25086 4.797719,1.8762903 1.640742,0.2360031 3.281484,0.4720064 4.922224,0.7080097 1.175178,-0.10514 2.350357,-0.2102803 3.525533,-0.3154207 3.27941,-0.7781501 6.558819,-1.5563005 9.838227,-2.3344507 0.970769,-0.3031278 1.941541,-0.6062554 2.912308,-0.9093832" />
  </g>
</svg>
